<?xml version="1.0"?>
<svg xmlns="http://www.w3.org/2000/svg" id="Layer_1" enable-background="new 0 0 509.217 509.217" height="512px" viewBox="0 0 509.217 509.217" width="512px"><g><path d="m254.609 0c-135.707 0-223.325 143.81-162.435 264.066l93.46 201.142c27.283 58.721 110.708 58.636 137.951 0l93.461-201.144c60.865-120.208-26.669-264.064-162.437-264.064zm133.781 249.821c-.188.368 4.231-9.13-93.824 201.902-15.828 34.061-64.069 34.093-79.912 0-97.685-210.236-93.628-201.516-93.822-201.9-49.916-98.197 20.995-217.823 133.777-217.823 112.718 0 183.728 119.548 133.781 217.821z" data-original="#000000" class="active-path" data-old_color="#000000" fill="#202095"/><path d="m254.609 93.068c-49.021 0-88.903 39.882-88.903 88.903s39.882 88.903 88.903 88.903 88.903-39.882 88.903-88.903-39.881-88.903-88.903-88.903zm0 145.807c-31.377 0-56.903-25.526-56.903-56.903s25.526-56.903 56.903-56.903 56.903 25.526 56.903 56.903-25.526 56.903-56.903 56.903z" data-original="#000000" class="active-path" data-old_color="#000000" fill="#202095"/></g> </svg>
