<?xml version="1.0" encoding="utf-8"?>
<!-- Generator: Adobe Illustrator 24.1.2, SVG Export Plug-In . SVG Version: 6.00 Build 0)  -->
<svg version="1.1" id="Слой_1" xmlns="http://www.w3.org/2000/svg" xmlns:xlink="http://www.w3.org/1999/xlink" x="0px" y="0px"
	 width="752.44px" height="180.555px" viewBox="0 0 752.44 180.555" enable-background="new 0 0 752.44 180.555"
	 xml:space="preserve">
<g>
	<path fill="#ECB52B" d="M0,125.61l18.72,13.17c229.184-48.972,475.047-53.297,733.72-23.33l-12.538-8.5
		C477.323,71.536,232.709,83.032,0,125.61z"/>
	<g>
		<path fill="#3C4BBD" d="M95.5,0H17C7.611,0,0,7.611,0,17v28.221c0,9.389,7.611,17,17,17l29.25,0.002c0,4.909,0,13.562,0,13.562
			l20,0.001c0,0,0-4.964,0-13.563l29.25-0.002c9.389,0,17-7.611,17-17V17C112.5,7.611,104.889,0,95.5,0z M92.5,43.221
			c0,2.761-2.239,5-5,5H66.25v-9.036h-20v9.036H25c-2.761,0-5-2.239-5-5V19c0-2.761,2.239-5,5-5h62.5c2.761,0,5,2.239,5,5V43.221z"
			/>
		<path fill="#3C4BBD" d="M215,43.221c0,2.761-2.239,5-5,5h-62.5c-2.761,0-5-2.239-5-5V0h-20v45.221c0,9.389,7.611,17,17,17H218
			c9.389,0,17-7.611,17-17V0h-20V43.221z"/>
		<path fill="#3C4BBD" d="M732.44,0v45.221c0,1.657-1.343,3-3,3h-66.5c-1.657,0-3-1.343-3-3V0h-20v45.221c0,9.389,7.611,17,17,17
			h78.5c9.389,0,17-7.611,17-17V0H732.44z"/>
		<path fill="#3C4BBD" d="M337.5,7.978c0,8.723-6.922,15.812-15.571,16.118H265V0h-20v62.221h20V38.123l2.11-0.001v0.003h54.819
			c8.649,0.306,15.571,7.395,15.571,16.118v7.978h20v-8.767c0-8.95-4.01-16.959-10.325-22.343
			C353.49,25.726,357.5,17.717,357.5,8.767V0h-20V7.978z"/>
		<path fill="#3C4BBD" d="M612.94,0h-95.5v62.221h20V38.26h56.94c8.644,0.312,15.56,7.398,15.56,16.118v7.843h20v-8.633
			c0-7.137-2.548-13.677-6.782-18.765c4.112-3.103,6.782-8.015,6.782-13.564V17C629.94,7.611,622.329,0,612.94,0z M609.94,19.13
			c0,2.743-2.223,4.966-4.966,4.966H537.44V14h67.534c2.743,0,4.966,2.223,4.966,4.966V19.13z"/>
		<rect x="490" y="48.471" fill="#3C4BBD" width="17.44" height="13.75"/>
		<path fill="#3C4BBD" d="M392.5,14h83.63l-0.026-14H384.5c-9.389,0-17,7.611-17,17v28.221c0,9.389,7.611,17,17,17h91.63v-14H392.5
			c-2.761,0-5-2.239-5-5v-5.125h88.63v-14H387.5V19C387.5,16.239,389.739,14,392.5,14z"/>
	</g>
</g>
<g>
	<path fill="#3C4BBD" d="M122.867,169.694c1.504-0.292,3.676-0.502,5.054-0.626c0.083-1.337,0.042-4.178,0.209-17.294
		c-0.752,0.376-2.256,0.793-3.384,1.044c-1.337-0.96-2.214-3.592-1.963-4.47c0.668-1.003,7.102-4.344,7.978-4.595
		c1.212-0.376,2.757,0.209,3.593,1.838c-0.376,3.551-0.459,9.817-0.459,14.537c0,3.509,0,5.932,0.083,8.689
		c1.462,0,2.673,0.042,3.425,0.042c0.835,0.71,1.295,1.588,1.295,2.506c0,1.003-0.585,2.214-1.963,3.217
		c-1.462-0.125-2.966-0.167-4.553-0.167c-2.673,0-5.639,0.125-8.02,0.209c-1.253-0.042-2.006-1.378-2.006-2.757
		C122.157,171.239,122.366,170.529,122.867,169.694z"/>
	<path fill="#3C4BBD" d="M142.626,169.694c1.504-0.292,3.676-0.502,5.054-0.626c0.083-1.337,0.042-4.178,0.209-17.294
		c-0.752,0.376-2.256,0.793-3.384,1.044c-1.337-0.96-2.214-3.592-1.963-4.47c0.668-1.003,7.102-4.344,7.978-4.595
		c1.212-0.376,2.757,0.209,3.593,1.838c-0.376,3.551-0.459,9.817-0.459,14.537c0,3.509,0,5.932,0.083,8.689
		c1.462,0,2.673,0.042,3.425,0.042c0.835,0.71,1.295,1.588,1.295,2.506c0,1.003-0.585,2.214-1.963,3.217
		c-1.462-0.125-2.966-0.167-4.553-0.167c-2.673,0-5.639,0.125-8.02,0.209c-1.253-0.042-2.006-1.378-2.006-2.757
		C141.916,171.239,142.125,170.529,142.626,169.694z"/>
	<path fill="#3C4BBD" d="M176.755,164.932c2.548-5.639,2.924-10.986,2.673-15.54c-1.963-0.167-3.425-1.671-3.425-3.091
		c0-0.668,0.376-1.755,0.752-2.548c4.595-0.585,14.161-1.295,18.297-1.378c1.086,0,2.465,0.96,2.924,2.005
		c0.835,7.143,0.292,20.594,0.626,28.364c-0.459,1.295-2.089,2.131-3.509,2.131c-1.378,0-2.84-0.627-3.258-2.006
		c0-4.093,0.418-18.756,0.251-24.312c-2.381,0.042-5.096,0.125-6.6,0.292c0,3.718-0.083,11.404-2.465,17.628
		c-1.462,3.759-4.386,8.187-6.559,8.856c-2.966-0.376-3.927-1.713-4.01-4.804C173.413,169.694,175.669,167.355,176.755,164.932z"/>
	<path fill="#3C4BBD" d="M205.118,162.008c-0.626-0.585-0.877-1.421-0.877-2.297c0-0.92,0.376-1.922,0.919-2.506
		c0.167-3.76,0.209-5.305,0.209-6.391c-1.086-0.92-1.588-2.298-1.588-3.927c1.295-1.086,2.089-1.504,3.718-2.297
		c4.637-0.251,17.044-1.17,19.049-0.71c0.585,0.836,0.835,1.755,0.835,2.506c0,1.295-0.668,2.632-1.838,3.049
		c-3.885,0.752-9.858,0.752-13.785,1.254c-0.042,1.629-0.083,3.592,0,5.221c2.799-0.125,8.647-0.585,12.824-1.086
		c1.128,0.709,1.546,1.838,1.546,2.799c0,1.336-0.668,2.798-1.88,3.341c-2.673,0.334-6.224,0.585-9.148,0.752
		c-1.671,0.125-2.548,0.125-3.634,0.209c-0.125,1.797-0.209,4.136-0.209,7.144c3.843-0.209,9.357-0.961,13.952-2.256
		c1.755,0.125,2.632,1.588,2.632,3.301c0,0.501-0.125,1.253-0.501,2.172c-5.431,2.548-12.908,2.924-18.965,3.133
		c-1.713-0.668-2.339-1.211-3.592-2.966L205.118,162.008z"/>
	<path fill="#3C4BBD" d="M240.667,149.769c-2.84,0.417-5.18,0.877-8.187,0.96c-1.044-1.671-1.504-3.634-0.919-5.138
		c3.467-1.461,18.882-2.965,23.142-2.965c1.211,1.211,1.17,3.467,0.125,5.096c-1.796,0.668-4.177,0.877-7.937,1.295l0.25,24.144
		c-1.796,1.671-4.01,2.298-5.932,1.044C240.625,171.114,240.5,155.951,240.667,149.769z"/>
	<path fill="#3C4BBD" d="M273.709,168.316c2.84-3.635,3.718-14.203,4.01-18.631c-0.376,0.042-1.504,0.125-1.713,0.125
		c-1.295-0.919-1.838-2.214-1.838-3.384c0-0.836,0.292-1.755,1.002-2.548c4.136-0.919,13.66-1.462,18.255-1.629
		c1.044,0.376,1.838,1.003,2.256,2.089c0.417,3.885,0.417,10.945,0.334,22.683c1.546-0.251,3.258,0.083,4.971,0.752
		c0,2.214-0.334,7.102-0.209,9.858c-1.295,2.172-2.966,2.089-5.221,2.089c-1.253-1.337-1.337-4.721-1.17-6.349
		c-3.927,0.209-8.73,0.459-18.087,0.96c0.083,1.128,0.292,2.799,0.334,3.885c-0.71,1.504-4.052,2.339-5.848,2.339
		c-0.961-4.177-1.295-7.812-0.543-11.613C271.077,168.483,272.373,168.399,273.709,168.316z M289.541,167.48
		c0.292-4.428,0.459-14.329,0.083-18.924c-2.047,0.084-5.054,0.209-5.932,0.376c-0.334,9.106-1.42,15.497-2.924,19.132
		L289.541,167.48z"/>
	<path fill="#3C4BBD" d="M305.331,160.587c0-3.801,0.042-6.641,0.083-8.354c-1.086-0.877-1.462-2.047-0.793-3.843
		c3.676-4.595,9.524-4.887,13.91-4.887c4.929,0,11.362,2.549,11.362,7.436c0,8.271-12.532,12.615-18.464,13.243
		c0.042,3.425,0.251,6.558,0.292,10.109c-1.337,0.919-2.673,1.253-3.592,1.253c-0.877,0-1.713-0.251-2.423-1.086
		C305.415,170.613,305.331,165.099,305.331,160.587z M323.336,151.398c0-1.796-3.175-2.339-5.765-2.339
		c-1.796,0-4.553,0.71-5.806,1.295c-0.167,2.046-0.25,5.597-0.334,8.062C314.688,157.998,323.336,155.868,323.336,151.398z"/>
	<path fill="#3C4BBD" d="M342.301,164.305c-3.175-5.347-10.192-15.623-10.735-19.508c0.543-1.588,3.927-2.882,5.681-1.42
		c2.465,4.26,5.556,10.777,8.229,15.038c2.548-4.512,5.263-11.363,7.895-15.665c1.546-0.334,4.052,0.209,5.18,2.298
		c-3.007,7.477-10.568,22.891-15.414,30.327c-2.882,0.669-4.762-0.042-5.89-2.632L342.301,164.305z"/>
	<path fill="#3C4BBD" d="M370.498,156.786c-2.506-2.84-8.02-7.812-9.691-10.318c0.083-2.423,3.842-4.219,4.887-3.467l10.862,11.404
		l0.376-9.691c0.543-1.044,1.922-2.173,3.384-2.173c0.752,0,1.588,0.292,2.506,1.128c0.375,1.587,0.375,4.47,0.375,10.818
		c2.256-2.046,5.472-5.472,11.112-11.403c1.421-0.543,4.679-0.376,5.18,2.715c-1.671,3.676-6.224,7.477-9.483,10.568
		c2.465,3.091,7.853,11.112,9.9,15.205c0,2.549-2.59,3.509-4.303,3.802c-3.885-3.969-7.686-11.654-10.276-14.788
		c-0.836,0.627-1.629,1.379-2.047,1.755c0.334,2.966,0.668,7.937,0.71,10.318c-0.627,1.378-2.131,2.047-3.468,2.047
		c-1.17,0-2.423-0.46-3.049-1.713c-0.376-3.258-0.543-7.436-0.585-10.568l-1.88-1.462c-2.632,3.676-7.352,11.07-10.025,14.495
		c-2.506,0-4.261-2.131-4.554-3.886C363.062,166.477,368.075,159.835,370.498,156.786z"/>
	<path fill="#3C4BBD" d="M404.376,162.008c-0.626-0.585-0.877-1.421-0.877-2.297c0-0.92,0.376-1.922,0.919-2.506
		c0.168-3.76,0.209-5.305,0.209-6.391c-1.086-0.92-1.588-2.298-1.588-3.927c1.295-1.086,2.089-1.504,3.718-2.297
		c4.637-0.251,17.043-1.17,19.048-0.71c0.585,0.836,0.836,1.755,0.836,2.506c0,1.295-0.668,2.632-1.838,3.049
		c-3.885,0.752-9.859,0.752-13.785,1.254c-0.042,1.629-0.084,3.592,0,5.221c2.799-0.125,8.647-0.585,12.824-1.086
		c1.128,0.709,1.546,1.838,1.546,2.799c0,1.336-0.669,2.798-1.88,3.341c-2.673,0.334-6.224,0.585-9.149,0.752
		c-1.671,0.125-2.548,0.125-3.634,0.209c-0.125,1.797-0.209,4.136-0.209,7.144c3.842-0.209,9.357-0.961,13.951-2.256
		c1.755,0.125,2.632,1.588,2.632,3.301c0,0.501-0.125,1.253-0.501,2.172c-5.431,2.548-12.908,2.924-18.965,3.133
		c-1.712-0.668-2.339-1.211-3.592-2.966L404.376,162.008z"/>
	<path fill="#3C4BBD" d="M434.662,164.932c2.548-5.639,2.924-10.986,2.673-15.54c-1.964-0.167-3.425-1.671-3.425-3.091
		c0-0.668,0.375-1.755,0.752-2.548c4.595-0.585,14.161-1.295,18.296-1.378c1.086,0,2.464,0.96,2.924,2.005
		c0.836,7.143,0.292,20.594,0.627,28.364c-0.459,1.295-2.089,2.131-3.509,2.131c-1.378,0-2.84-0.627-3.258-2.006
		c0-4.093,0.418-18.756,0.251-24.312c-2.381,0.042-5.097,0.125-6.601,0.292c0,3.718-0.083,11.404-2.464,17.628
		c-1.462,3.759-4.387,8.187-6.558,8.856c-2.966-0.376-3.927-1.713-4.01-4.804C431.32,169.694,433.575,167.355,434.662,164.932z"/>
	<path fill="#3C4BBD" d="M462.273,145.926c0.459-1.504,1.839-2.214,3.258-2.214c1.086,0,2.256,0.543,2.924,1.504
		c0.292,3.091,0.459,7.352,0.459,11.697c0.668,0,3.174,0,4.303-0.084c1.17-8.564,8.103-13.326,15.372-13.326
		c8.731,0,14.829,6.057,14.829,15.247c0,11.237-8.772,16.292-16.5,16.292c-6.892,0-12.406-4.679-13.618-12.24h-4.386
		c0,3.509,0,7.018,0.083,9.65c-0.209,1.421-1.629,2.256-3.174,2.256c-1.253,0-2.673-0.585-3.384-1.964L462.273,145.926z
		 M487.17,168.817c3.551,0,9.858-1.839,9.858-10.067c0-6.099-3.969-9.232-8.229-9.232c-4.887,0-9.524,3.174-9.524,10.151
		C479.275,165.767,482.575,168.817,487.17,168.817z"/>
	<path fill="#3C4BBD" d="M508.975,150.855c-0.793-0.752-1.211-1.963-1.211-2.882c0-0.92,0.292-1.797,1.086-2.382
		c3.3-1.587,15.832-3.801,19.383-3.341c0.96,0.585,1.504,1.671,1.504,2.673c0,1.337-0.836,2.84-2.131,3.341
		c-2.381,0-9.273,0.585-12.198,1.379c-0.042,2.089-0.292,3.425-0.208,5.555c3.133-0.877,5.89-1.295,8.146-1.295
		c5.18,0,10.151,2.506,10.151,8.23c0,11.069-12.657,12.824-20.594,12.949c-1.545-0.459-3.09-1.462-3.55-3.467
		C508.85,168.817,509.101,154.739,508.975,150.855z M527.188,162.426c0-1.963-2.047-2.715-4.888-2.715
		c-2.966,0-6.266,0.793-7.06,1.211l0.209,8.103C520.379,169.527,527.188,167.48,527.188,162.426z"/>
	<path fill="#3C4BBD" d="M539.01,163.011c-1.211-1.17-1.128-3.802,0-5.054c0-2.006-0.459-9.149-0.334-11.947
		c0.542-1.838,3.383-3.049,5.889-2.297c0.877,1.588,0.961,6.935,1.086,12.908c2.423-0.125,6.1-0.418,11.237-0.961
		c-0.083-2.631-0.125-5.18-0.125-10.276c0.502-1.462,1.88-2.172,3.301-2.172c1.086,0,2.256,0.543,2.882,1.505
		c0.501,4.427,0.543,11.279,0.543,17.67c0,3.634,0,7.268,0.083,10.067c-0.251,1.421-1.671,2.256-3.258,2.256
		c-1.253,0-2.673-0.585-3.3-1.964c0.042-3.341,0.084-7.895,0.084-11.362c-3.593,0.376-10.401,1.086-11.697,1.42
		c-0.167,1.003,0.125,7.645,0.125,9.9c0,1.629-1.672,2.465-3.301,2.465c-1.253,0-2.506-0.459-2.966-1.504L539.01,163.011z"/>
	<path fill="#3C4BBD" d="M570.799,144.087c1.003-1.086,1.963-1.42,2.799-1.42c1.294,0,2.715,0.25,3.508,1.044l0.042,11.529
		c3.174-0.835,5.848-1.294,8.146-1.294c5.096,0,10.109,2.506,10.109,8.27c0,11.029-12.615,12.741-20.553,12.866
		c-1.545-0.459-3.049-1.42-3.508-3.3C570.757,167.188,571.217,149.643,570.799,144.087z M589.054,162.467
		c0-1.963-2.005-2.673-4.804-2.673c-2.966,0-6.307,0.752-7.018,1.211l0.167,8.063C582.328,169.443,589.054,167.563,589.054,162.467z
		 M598.411,145.8c0.459-1.462,1.879-2.214,3.3-2.214c1.086,0,2.256,0.585,2.882,1.545c0.752,6.851,0.418,19.508,0.627,27.319
		c-0.292,1.421-1.713,2.256-3.217,2.256c-1.295,0-2.715-0.543-3.384-1.964L598.411,145.8z"/>
	<path fill="#3C4BBD" d="M617.752,158.791l-7.561-12.072c0.292-0.793,2.548-4.136,4.971-2.924c1.922,2.131,4.762,7.185,6.559,9.942
		c2.423-3.425,4.845-7.185,7.352-10.025c1.713-0.209,3.843,0.292,5.221,1.796c-1.879,4.344-5.848,8.939-8.688,12.908l9.691,13.2
		c0.167,1.086-1.588,3.592-4.261,3.801c-3.843-3.926-6.767-8.48-9.232-11.905l-8.605,11.53c-2.256,0.292-4.637-1.671-4.637-3.425
		L617.752,158.791z"/>
	<path fill="#3C4BBD" d="M650.962,145.716c0.084-1.504,2.173-2.673,4.052-2.673c0.877,0,1.88,0.292,2.841,1.087
		c0.042,2.673-0.376,20.51,0.042,24.771c3.091-0.083,7.059-0.376,10.318-1.086l-0.125-23.769c0.71-1.378,2.047-1.629,3.342-1.629
		c1.044,0,2.173,0.167,2.966,1.128c0.375,1.922,0.418,7.185,0.418,23.602c1.211,0,2.423-0.125,3.467,0
		c0.793,0.752,1.044,1.044,1.462,2.172l-0.334,8.731c-1.295,1.462-3.551,1.713-5.264,1.713c-1.003-1.546-1.003-4.22-1.003-6.183
		c-5.179,0.585-14.369,1.671-18.839,1.838c-1.337-0.626-2.214-1.086-2.841-2.924C651.046,168.441,651.003,161.548,650.962,145.716z"
		/>
	<path fill="#3C4BBD" d="M684.214,162.008c-0.626-0.585-0.877-1.421-0.877-2.297c0-0.92,0.376-1.922,0.919-2.506
		c0.168-3.76,0.209-5.305,0.209-6.391c-1.086-0.92-1.588-2.298-1.588-3.927c1.295-1.086,2.089-1.504,3.718-2.297
		c4.637-0.251,17.044-1.17,19.048-0.71c0.585,0.836,0.836,1.755,0.836,2.506c0,1.295-0.668,2.632-1.838,3.049
		c-3.885,0.752-9.859,0.752-13.785,1.254c-0.042,1.629-0.084,3.592,0,5.221c2.799-0.125,8.647-0.585,12.824-1.086
		c1.128,0.709,1.546,1.838,1.546,2.799c0,1.336-0.669,2.798-1.88,3.341c-2.673,0.334-6.224,0.585-9.149,0.752
		c-1.671,0.125-2.548,0.125-3.634,0.209c-0.125,1.797-0.208,4.136-0.208,7.144c3.842-0.209,9.357-0.961,13.951-2.256
		c1.755,0.125,2.632,1.588,2.632,3.301c0,0.501-0.125,1.253-0.501,2.172c-5.431,2.548-12.908,2.924-18.965,3.133
		c-1.712-0.668-2.339-1.211-3.592-2.966L684.214,162.008z"/>
	<path fill="#3C4BBD" d="M713.037,163.011c-1.211-1.17-1.128-3.802,0-5.054c0-2.006-0.459-9.149-0.334-11.947
		c0.542-1.838,3.383-3.049,5.889-2.297c0.877,1.588,0.961,6.935,1.086,12.908c2.423-0.125,6.1-0.418,11.237-0.961
		c-0.083-2.631-0.125-5.18-0.125-10.276c0.502-1.462,1.88-2.172,3.301-2.172c1.086,0,2.256,0.543,2.882,1.505
		c0.501,4.427,0.543,11.279,0.543,17.67c0,3.634,0,7.268,0.083,10.067c-0.251,1.421-1.671,2.256-3.258,2.256
		c-1.253,0-2.673-0.585-3.3-1.964c0.042-3.341,0.084-7.895,0.084-11.362c-3.593,0.376-10.401,1.086-11.697,1.42
		c-0.167,1.003,0.125,7.645,0.125,9.9c0,1.629-1.672,2.465-3.301,2.465c-1.253,0-2.506-0.459-2.966-1.504L713.037,163.011z"/>
	<path fill="#3C4BBD" d="M747.333,167.689c1.504,0,3.508,1.044,3.718,3.802c-0.71,2.924-3.3,3.592-5.013,3.634
		c-2.465-0.626-3.3-2.046-3.3-3.926C743.155,169.318,744.116,167.689,747.333,167.689z M745.494,144.672
		c0.042-0.835,5.18-2.464,6.726-0.542c-0.543,4.386-1.462,12.908-2.465,19.257c-0.836,0.961-4.052,1.379-5.221,0.627
		C743.99,163.011,744.868,153.403,745.494,144.672z"/>
</g>
</svg>
